<svg width="20" height="20" viewBox="0 0 20 20" fill="none" xmlns="http://www.w3.org/2000/svg">
<path d="M19.375 10C19.375 10.8653 19.1185 11.7113 18.6377 12.4308C18.157 13.1503 17.4737 13.7111 16.6742 14.0423C15.8748 14.3734 14.9951 14.4601 14.1463 14.2912C13.2976 14.1224 12.5181 13.7057 11.9062 13.0938L11.8804 13.0664L7.19683 7.77734C6.75834 7.34398 6.20147 7.05 5.59628 6.93239C4.9911 6.81478 4.36466 6.87881 3.79578 7.1164C3.2269 7.354 2.74101 7.75456 2.39925 8.26766C2.0575 8.78077 1.87514 9.3835 1.87514 10C1.87514 10.6165 2.0575 11.2192 2.39925 11.7323C2.74101 12.2454 3.2269 12.646 3.79578 12.8836C4.36466 13.1212 4.9911 13.1852 5.59628 13.0676C6.20147 12.95 6.75834 12.656 7.19683 12.2227L7.86245 11.4711C7.91688 11.4095 7.9829 11.3593 8.05674 11.3233C8.13058 11.2872 8.2108 11.2661 8.29281 11.261C8.37482 11.256 8.45702 11.2671 8.53472 11.2939C8.61242 11.3206 8.6841 11.3624 8.74566 11.4168C8.80721 11.4712 8.85745 11.5372 8.89349 11.6111C8.92953 11.6849 8.95068 11.7651 8.95572 11.8472C8.96076 11.9292 8.9496 12.0114 8.92287 12.0891C8.89615 12.1668 8.85438 12.2384 8.79995 12.3L8.12105 13.0664L8.09526 13.0938C7.48339 13.7056 6.70384 14.1222 5.85519 14.291C5.00653 14.4597 4.12689 14.3731 3.32749 14.0419C2.52809 13.7108 1.84483 13.15 1.36412 12.4306C0.883409 11.7111 0.626831 10.8653 0.626831 10C0.626831 9.13473 0.883409 8.28888 1.36412 7.56943C1.84483 6.84997 2.52809 6.28922 3.32749 5.95807C4.12689 5.62692 5.00653 5.54026 5.85519 5.70903C6.70384 5.87781 7.48339 6.29444 8.09526 6.90625L8.12105 6.93359L12.8046 12.2227C13.2431 12.656 13.8 12.95 14.4052 13.0676C15.0104 13.1852 15.6368 13.1212 16.2057 12.8836C16.7746 12.646 17.2605 12.2454 17.6022 11.7323C17.944 11.2192 18.1263 10.6165 18.1263 10C18.1263 9.3835 17.944 8.78077 17.6022 8.26766C17.2605 7.75456 16.7746 7.354 16.2057 7.1164C15.6368 6.87881 15.0104 6.81478 14.4052 6.93239C13.8 7.05 13.2431 7.34398 12.8046 7.77734L12.139 8.52891C12.0291 8.65323 11.8743 8.72879 11.7087 8.73897C11.543 8.74916 11.3801 8.69312 11.2558 8.5832C11.1315 8.47328 11.0559 8.31848 11.0457 8.15285C11.0356 7.98722 11.0916 7.82432 11.2015 7.7L11.8804 6.93359L11.9062 6.90625C12.5181 6.29433 13.2976 5.8776 14.1463 5.70877C14.9951 5.53993 15.8748 5.62657 16.6742 5.95773C17.4737 6.28889 18.157 6.84969 18.6377 7.56922C19.1185 8.28874 19.375 9.13466 19.375 10Z" fill="#4F4F4F"/>
</svg>
